<?xml version="1.0" standalone="no"?>
<!DOCTYPE svg PUBLIC "-//W3C//DTD SVG 20010904//EN"
 "http://www.w3.org/TR/2001/REC-SVG-20010904/DTD/svg10.dtd">
<svg version="1.0" xmlns="http://www.w3.org/2000/svg"
 width="662.000000pt" height="880.000000pt" viewBox="0 0 662.000000 880.000000"
 preserveAspectRatio="xMidYMid meet">
<metadata>
Created by potrace 1.16, written by Peter Selinger 2001-2019
</metadata>
<g transform="translate(0.000000,880.000000) scale(0.100000,-0.100000)"
fill="#000000" stroke="none">
<path d="M2196 8769 c-71 -11 -201 -56 -281 -97 -247 -124 -417 -332 -497
-607 -20 -70 -23 -102 -23 -255 0 -195 13 -262 79 -406 143 -309 447 -525 781
-554 488 -43 900 242 1037 717 31 105 33 359 4 468 -43 165 -131 329 -234 437
-103 109 -265 213 -400 258 -128 42 -341 60 -466 39z"/>
<path d="M4677 8205 c-822 -564 -1352 -1366 -1545 -2335 -46 -232 -63 -396
-69 -697 l-6 -273 -72 133 c-385 711 -933 1258 -1604 1598 -197 100 -488 212
-686 263 -247 63 -635 117 -635 89 0 -5 39 -35 88 -67 306 -208 529 -392 783
-645 285 -285 465 -510 658 -824 385 -624 612 -1318 701 -2142 17 -159 14
-922 -4 -1087 -60 -538 -201 -1125 -386 -1606 -65 -170 -98 -248 -187 -435
-41 -87 -73 -161 -70 -163 8 -8 122 53 262 140 650 403 1119 1002 1377 1756
55 159 111 386 143 570 26 150 43 440 44 770 l1 95 78 -140 c208 -370 402
-620 723 -929 522 -503 1220 -829 1939 -906 112 -12 402 -28 409 -23 2 2 2 4
0 6 -441 337 -685 554 -946 838 -608 664 -1024 1358 -1286 2151 -316 952 -327
1971 -31 2908 79 252 241 627 379 881 41 75 75 140 75 143 0 16 -35 -1 -133
-69z"/>
</g>
</svg>
