<?xml version="1.0" standalone="no"?>
<!DOCTYPE svg PUBLIC "-//W3C//DTD SVG 20010904//EN"
 "http://www.w3.org/TR/2001/REC-SVG-20010904/DTD/svg10.dtd">
<svg version="1.0" xmlns="http://www.w3.org/2000/svg"
 width="1312.000000pt" height="1423.000000pt" viewBox="0 0 1312.000000 1423.000000"
 preserveAspectRatio="xMidYMid meet">
<metadata>
Created by potrace 1.16, written by Peter Selinger 2001-2019
</metadata>
<g transform="translate(0.000000,1423.000000) scale(0.100000,-0.100000)"
fill="#000000" stroke="none">
<path d="M7505 9543 c-135 -19 -325 -95 -440 -177 -403 -288 -530 -837 -295
-1273 134 -249 364 -425 647 -495 130 -32 332 -30 463 4 481 128 796 578 743
1061 -19 167 -85 341 -179 474 -111 157 -300 296 -489 361 -128 44 -321 63
-450 45z"/>
<path d="M10009 8949 c-361 -245 -716 -592 -954 -934 -250 -358 -434 -751
-549 -1172 -97 -357 -137 -665 -137 -1057 l0 -240 -65 124 c-363 693 -884
1241 -1529 1606 -257 145 -579 275 -855 344 -201 50 -501 100 -604 100 -39 0
-37 -2 107 -99 571 -387 1037 -853 1379 -1381 438 -676 687 -1412 780 -2310
18 -169 18 -881 0 -1050 -82 -794 -303 -1575 -628 -2221 -24 -49 -41 -89 -36
-89 17 0 234 127 352 205 467 312 846 735 1101 1230 200 386 326 794 385 1245
14 103 18 209 18 447 1 172 2 313 2 313 1 0 32 -55 68 -122 119 -221 250 -418
412 -623 106 -133 413 -442 544 -547 604 -484 1292 -745 2045 -774 l160 -7
-132 101 c-1078 819 -1858 1930 -2212 3145 -273 938 -259 1945 42 2857 92 281
252 641 394 893 34 59 58 107 54 107 -4 0 -68 -41 -142 -91z"/>
</g>
</svg>
